<svg width="24" height="24" viewBox="0 0 24 24" fill="none" xmlns="http://www.w3.org/2000/svg">
<path fill-rule="evenodd" clip-rule="evenodd" d="M22 12C22 17.5228 17.5228 22 12 22C6.47715 22 2 17.5228 2 12C2 6.47715 6.47715 2 12 2C17.5228 2 22 6.47715 22 12ZM11.6139 13.213C11.1688 13.6582 10.4888 13.7685 9.92578 13.487C9.36274 13.2055 8.68274 13.3158 8.23762 13.7609L6.7209 15.2777C6.4607 15.5379 6.56529 15.9809 6.91439 16.0973C9.04888 16.8088 11.4022 16.2533 12.9931 14.6623L14.899 12.7564C16.4333 11.2221 16.8137 8.87805 15.8433 6.93723C15.715 6.68076 15.3732 6.62529 15.1705 6.82804L13.4996 8.49898C13.0544 8.9441 12.9441 9.62411 13.2256 10.1871C13.5071 10.7502 13.3968 11.4302 12.9517 11.8753L11.6139 13.213Z" fill="#49BCF7"/>
</svg>
