<svg width="850" height="195" viewBox="0 0 850 195" fill="none" xmlns="http://www.w3.org/2000/svg">
<g filter="url(#filter0_d)">
<path d="M37.176 42.688C44.952 40.384 49.56 39.808 58.2 40.672C58.2 41.248 58.488 42.112 58.488 42.976C56.472 47.296 54.744 51.904 53.016 56.512C52.152 57.952 51.288 59.104 50.424 60.256C41.496 62.272 32.856 62.272 24.216 60.832C22.776 62.56 21.624 63.712 20.76 64.864C20.76 66.88 21.624 67.168 22.776 67.456C24.216 67.744 25.368 67.744 26.808 67.744C32.28 67.456 37.752 67.168 42.936 67.168C44.376 67.168 45.816 67.168 46.68 68.32C47.256 70.048 46.392 71.488 45.816 73.216C44.088 76.96 42.36 80.992 40.92 85.024C39.192 89.344 40.056 93.088 43.512 95.68C44.952 96.256 46.104 95.968 46.68 94.816C47.832 91.936 48.984 88.768 49.848 85.6C52.152 79.264 55.32 73.216 58.488 67.744C63.96 66.88 79.224 66.592 85.848 66.88C86.712 66.88 87.864 67.168 89.304 67.744C89.016 69.184 89.016 70.624 88.44 71.776C87.288 75.232 85.56 78.688 84.12 82.144C83.256 84.448 82.104 86.752 81.24 88.768C80.664 90.208 80.952 91.648 82.104 92.8C86.424 92.224 89.304 89.92 91.32 85.888C93.624 81.568 95.928 76.672 98.52 72.352C99.096 70.912 100.248 69.472 100.824 68.32C106.872 67.744 112.632 67.168 118.392 66.592C119.544 66.592 120.984 66.304 122.136 65.728C123.288 65.44 123.864 63.712 123 63.136C121.848 61.696 120.408 60.544 118.968 59.392C114.648 59.68 110.328 59.68 106.008 59.968C106.584 52.768 110.04 45.28 116.664 38.08C121.56 37.504 127.032 36.64 132.504 36.64C134.232 36.64 136.248 36.352 137.976 35.776C139.416 35.488 140.568 34.624 139.992 32.608C137.4 31.168 134.52 30.016 131.064 30.304C127.896 30.88 124.728 31.744 120.984 30.592C121.848 27.424 123.288 24.544 124.728 21.664C125.88 19.648 126.744 17.92 127.032 15.616C127.32 13.888 126.168 12.16 124.44 11.872C122.136 11.296 119.832 11.296 116.952 12.16C116.088 13.312 114.648 14.752 113.784 16.48C112.056 19.936 110.616 23.392 109.176 26.848C108.024 29.44 106.872 31.744 104.28 33.76C97.944 34.048 91.032 34.336 84.408 34.912C82.68 34.912 81.24 34.624 79.512 34.624C79.224 34.624 78.648 34.048 78.072 33.472C78.36 30.88 80.088 28.576 81.528 26.272C82.968 23.968 84.984 21.664 87 19.36C87 18.496 87 17.92 87.288 17.056C87.288 13.6 86.136 11.584 83.256 11.008C80.664 10.144 77.784 10.144 75.192 10.72C72.6 12.736 71.16 15.328 70.008 17.92C67.416 23.968 64.824 30.016 61.368 35.2C58.488 36.352 55.896 36.064 53.016 36.352C48.696 36.352 44.376 36.64 40.056 36.928C38.616 36.928 37.176 37.504 36.888 39.232C36.888 40.096 37.176 41.248 37.176 42.688ZM74.616 39.808C88.44 37.792 95.928 37.504 101.688 38.656C101.688 38.944 101.976 39.232 101.976 39.232C100.824 42.112 99.96 44.992 98.52 47.584C96.216 51.616 95.064 56.512 91.896 60.256C84.12 61.408 69.432 61.12 63.96 59.968C63.96 59.392 63.384 58.816 63.672 58.528C65.112 54.208 70.584 44.992 74.616 39.808ZM234.559 97.12C235.135 94.24 233.983 92.512 231.967 94.528C228.799 97.12 224.479 107.776 196.255 127.648C194.239 129.088 191.935 130.816 188.767 130.528C188.479 128.224 187.903 126.208 187.615 124.192C186.175 110.656 183.871 97.12 181.279 83.872C178.687 71.488 179.839 59.392 182.143 47.296C184.159 46.432 186.175 45.568 187.903 44.704C190.783 43.264 192.511 40.96 193.951 38.368C195.391 35.2 195.103 32.896 191.935 30.88C188.479 28.864 183.007 27.136 179.263 28.864C170.335 32.608 165.151 38.944 160.255 47.296C157.375 51.904 156.799 57.088 156.799 62.272C156.799 66.592 155.359 69.472 153.055 72.64C144.991 83.296 137.215 94.24 130.302 105.472C130.59 105.472 131.742 105.76 134.334 105.76C142.399 93.664 145.279 89.92 153.631 77.824C154.495 76.96 155.359 76.096 156.511 75.232C157.663 79.264 166.591 129.664 167.455 133.984C167.743 135.424 167.455 136.864 167.455 138.592C161.695 139.744 155.07 140.608 149.887 147.52C148.735 148.672 147.871 150.4 147.871 152.128C147.583 156.448 151.903 161.92 156.223 163.36C160.543 164.8 164.863 164.224 168.607 162.784C178.975 159.328 186.751 152.704 188.479 141.184C189.055 139.456 189.055 137.44 189.343 136C189.343 136 191.359 135.136 191.647 134.848C214.399 121.888 233.119 101.152 234.559 97.12ZM187.327 34.624C188.767 33.472 190.207 33.76 191.071 35.776C188.767 39.808 188.767 39.808 183.583 41.824C183.583 38.368 185.023 36.352 187.327 34.624ZM159.679 159.04C154.495 158.176 154.495 157.888 152.191 152.128C155.359 146.368 160.255 143.776 166.879 143.488C166.879 150.112 166.591 156.16 159.679 159.04ZM168.031 98.56L167.455 98.848C167.455 97.408 167.167 96.256 167.167 95.104H168.031V98.56ZM356.244 95.392C356.82 94.528 357.108 93.664 357.396 92.8C357.972 92.224 358.26 91.36 358.548 90.496C358.548 89.632 358.26 88.48 357.396 88.48C357.108 88.192 356.82 88.192 356.532 88.48C356.244 88.48 355.956 88.768 355.668 89.056C353.652 91.648 352.212 94.816 350.196 97.408C348.18 100.288 345.876 103.168 343.572 105.76C339.252 111.232 334.644 116.416 329.748 121.312C326.58 124.768 322.836 127.936 319.092 130.816C316.212 133.408 312.756 134.272 309.012 135.424C308.724 135.424 308.148 135.424 307.86 135.712C307.284 135.712 306.708 135.712 305.844 135.424C305.268 135.424 304.404 135.424 303.828 134.848L303.54 134.56C299.508 129.952 299.22 122.464 301.236 116.992C304.692 108.064 307.572 98.56 310.74 89.344C313.62 80.128 322.26 63.136 326.292 54.208C327.732 51.328 329.46 49.024 330.9 46.144C332.916 42.688 332.628 41.536 329.748 38.08C328.884 38.08 327.732 37.792 326.58 37.792C317.652 37.504 311.028 41.536 306.996 49.6C302.676 57.952 294.036 74.944 290.004 83.584C289.716 84.448 289.428 85.312 289.14 86.464C287.124 92.8 285.108 99.424 282.804 106.048C282.516 107.488 281.364 108.64 280.5 109.792C274.74 115.84 268.404 121.024 261.492 125.632C261.492 126.784 254.292 129.088 253.14 129.376C250.26 130.24 247.668 130.816 244.5 130.528C243.924 130.528 243.636 130.528 243.348 130.24C241.908 129.664 241.044 126.784 240.468 125.344C239.892 123.616 239.604 121.6 239.604 119.584C239.604 111.52 240.756 103.456 243.348 95.68C247.956 82.432 258.036 61.12 263.22 47.872C264.084 45.568 264.66 42.976 263.508 40.384C262.932 40.096 262.356 39.52 261.78 39.232C255.732 35.2 251.7 35.488 246.804 40.96C244.212 44.416 241.332 47.872 239.316 51.904C232.404 67.168 219.444 91.648 219.156 108.64C218.868 116.992 222.612 129.376 230.676 133.984C233.268 135.424 236.148 135.424 239.316 135.424C248.532 135.136 257.748 133.408 265.524 127.648C269.268 124.768 272.724 122.176 276.468 119.296C277.332 118.72 278.196 118.144 279.636 117.28C279.924 119.296 279.924 120.16 280.212 121.312C280.788 133.12 293.46 142.336 304.116 141.76C305.556 141.76 306.996 141.76 308.148 141.184C312.468 139.168 317.364 137.152 321.108 134.272C325.716 131.104 329.748 127.36 333.492 123.04C337.812 118.144 342.42 113.248 346.74 108.352C348.756 105.76 351.06 103.168 352.788 100.288C353.652 99.136 354.516 97.984 355.38 96.832C355.668 96.544 355.956 95.968 356.244 95.392ZM301.524 91.648V92.224L301.236 91.936L301.524 91.648ZM300.084 85.024C300.372 85.312 300.372 85.312 300.66 85.6C300.66 85.6 300.372 85.6 300.372 85.888C300.084 85.6 300.084 85.6 300.084 85.6C300.084 85.312 300.084 85.312 300.084 85.024ZM229.236 113.536C228.948 113.536 228.948 113.536 228.66 113.536C228.66 113.248 228.66 113.248 228.66 112.96C228.66 112.96 228.948 112.96 229.236 112.96C229.236 112.96 229.236 113.248 229.236 113.536ZM230.388 104.32C230.388 105.76 230.964 107.488 229.524 108.928C227.796 105.472 228.372 98.56 231.252 91.072C231.828 90.784 232.404 90.784 232.98 90.784C230.964 95.104 230.964 99.712 230.388 104.32ZM232.692 85.888C232.692 87.616 232.692 89.344 232.98 90.784C232.116 89.344 229.812 88.192 232.692 85.888ZM292.02 98.272C292.596 99.712 292.596 99.712 291.156 101.44C291.444 100.288 291.732 99.136 292.02 98.272ZM292.02 114.4C291.732 113.824 291.732 112.96 291.732 112.096C292.02 112.096 292.02 112.096 292.308 112.096C292.596 112.96 292.596 113.536 292.596 114.4H292.02ZM293.46 108.064C292.596 104.32 293.748 101.152 296.34 98.272C296.34 102.016 294.612 104.896 293.46 108.064ZM298.068 95.392C297.492 96.256 296.916 97.12 296.34 97.984C296.052 96.544 296.916 95.968 298.068 95.392C298.068 94.816 297.78 93.952 297.78 93.376H298.068V95.392ZM299.22 89.056L298.932 88.48L299.22 88.768V89.056ZM497.541 109.216C498.693 107.488 500.709 105.76 501.573 104.032C502.437 102.016 503.301 100.288 504.165 98.56C504.165 97.696 504.165 97.12 504.165 96.256C502.725 95.68 500.997 96.256 500.133 97.408C499.269 98.56 498.981 100 498.405 101.152C496.389 105.184 490.053 111.808 487.173 115.552C484.005 119.296 480.549 122.752 476.805 125.92C474.789 127.648 472.773 129.376 470.469 130.816C469.029 131.68 466.437 133.696 464.709 133.984C457.509 134.56 456.645 125.056 458.085 119.872C460.677 112.096 462.693 104.32 465.573 96.832C470.181 83.872 474.501 70.624 477.669 56.8C481.125 42.4 472.197 34.912 459.813 31.744C453.765 32.32 447.717 32.32 443.109 36.064C437.637 40.096 432.741 44.704 427.557 48.736C426.981 49.6 425.829 49.888 425.541 50.176C423.813 47.296 422.661 44.416 420.645 42.4C414.309 35.776 405.669 34.912 398.181 40.384C396.741 41.536 394.725 42.688 393.573 44.416C392.421 45.568 391.557 46.432 390.117 47.584C384.645 51.328 381.765 58.24 378.885 63.712C378.021 64.864 376.581 66.592 376.869 64.288C377.157 63.136 377.733 62.272 378.021 61.12C379.461 55.648 380.901 50.176 382.053 44.704C383.205 40.672 382.053 37.216 379.173 34.048C375.429 33.76 369.381 34.624 366.213 36.928C363.333 38.944 361.029 44.128 359.301 47.584C357.573 51.04 356.421 54.784 355.269 58.24C348.357 77.824 343.173 98.272 335.973 117.856C335.397 119.584 334.821 121.312 334.533 123.328C333.957 128.8 336.549 131.968 342.021 133.408C344.613 133.984 346.917 134.56 349.509 135.136C353.829 133.408 356.709 130.24 357.861 125.344C358.149 123.04 358.725 120.736 359.589 118.432C364.485 104.32 369.381 90.496 375.717 76.96C379.749 68.32 384.645 60.256 391.269 53.344C394.149 50.464 397.605 48.16 400.773 45.856C401.637 44.992 403.077 44.992 403.941 44.704C406.245 46.144 405.957 47.872 405.957 49.6C404.805 58.528 403.653 67.168 400.773 75.232C398.181 82.144 395.301 89.056 392.421 96.256C391.269 99.136 390.117 102.304 388.965 105.472C387.813 108.352 388.677 110.368 390.981 112.096C392.709 113.536 394.437 113.536 396.741 111.808C400.773 108.64 404.229 105.184 406.533 100.576C409.125 95.68 411.429 90.496 413.733 85.6C416.613 78.688 419.205 72.064 422.085 65.152C424.101 60.256 426.981 56.224 431.013 52.768C435.909 48.448 441.381 44.704 446.853 40.672C448.005 39.808 449.445 39.232 450.885 38.944C454.053 38.08 456.933 39.808 457.797 43.264C458.085 44.128 458.085 45.28 458.085 46.144C458.085 50.176 456.645 53.632 455.205 57.088C449.733 68.608 444.261 80.416 439.077 92.224C435.909 98.848 434.469 106.048 434.469 113.536C434.757 125.056 442.821 136.576 454.629 138.016C462.981 138.88 468.165 136.576 474.789 131.68C480.261 127.36 485.445 122.176 490.341 117.568C492.933 114.976 495.237 111.808 497.541 109.216ZM363.909 83.008V83.584L363.621 83.296L363.909 83.008ZM362.757 71.2V70.912C362.757 71.2 362.757 71.2 362.757 71.2ZM356.997 89.056L356.709 87.616C356.997 87.904 356.997 88.48 357.285 89.056C356.997 89.056 356.997 89.056 356.997 89.056ZM361.029 96.544C361.029 97.12 360.453 97.696 359.877 99.136C359.013 95.968 359.589 94.528 362.181 93.088C361.605 94.816 361.317 95.68 361.029 96.544ZM360.741 82.72C360.741 83.872 360.453 84.736 360.165 85.888C360.165 85.888 359.877 86.176 359.877 86.464C359.877 86.176 360.165 85.888 360.165 85.6C359.013 86.176 357.861 87.04 356.997 87.616C358.149 83.584 359.589 79.552 361.029 75.52C361.605 74.08 362.181 72.64 362.757 71.2C363.909 75.52 361.317 78.976 360.741 82.72ZM363.621 91.648C363.621 90.784 363.621 89.632 363.909 88.768C365.349 84.16 366.789 79.264 368.229 74.368C368.805 73.504 368.805 72.352 370.245 72.352C369.093 79.264 367.077 85.6 363.621 91.648ZM370.533 72.064C370.245 71.488 370.245 70.912 370.245 70.336C370.533 70.336 370.533 70.624 370.821 70.624C370.821 70.912 370.533 71.488 370.533 72.064ZM376.869 67.456C377.157 67.456 377.445 67.744 377.733 67.744C377.445 67.744 377.157 67.456 376.869 67.456ZM414.309 57.088C415.173 62.272 412.581 71.2 408.261 77.536C409.413 69.76 413.157 64 414.309 57.088ZM412.005 77.824C412.293 77.248 412.293 76.96 412.581 76.384V77.824H412.005ZM412.581 75.808C412.869 74.944 412.869 73.504 413.157 71.488C414.021 74.08 414.309 75.232 412.581 75.808ZM414.309 69.76L414.597 69.472V69.76H414.309ZM452.613 95.968L452.901 96.256H452.613C452.613 96.256 452.613 96.256 452.613 95.968ZM445.701 109.504L445.413 109.216H445.701V109.504ZM447.717 98.56H447.429H447.717ZM447.717 98.272C446.853 94.24 449.445 91.072 450.885 87.616C451.173 91.648 449.733 95.104 447.717 98.272ZM450.021 104.608V102.88L450.597 104.32C450.309 104.32 450.309 104.608 450.021 104.608ZM452.037 101.44C451.749 102.016 450.885 102.016 450.021 102.304C450.885 100.288 451.749 98.272 452.613 96.256C453.477 97.984 453.189 100 452.037 101.44ZM454.917 72.64L454.629 72.064L454.917 72.352V72.64ZM645.885 109.216C647.037 107.488 649.053 105.76 649.917 104.032C650.781 102.016 651.645 100.288 652.509 98.56C652.509 97.696 652.509 97.12 652.509 96.256C651.069 95.68 649.341 96.256 648.477 97.408C647.613 98.56 647.325 100 646.749 101.152C644.733 105.184 638.397 111.808 635.517 115.552C632.349 119.296 628.893 122.752 625.149 125.92C623.133 127.648 621.117 129.376 618.813 130.816C617.373 131.68 614.781 133.696 613.053 133.984C605.853 134.56 604.989 125.056 606.429 119.872C609.021 112.096 611.037 104.32 613.917 96.832C618.525 83.872 622.845 70.624 626.013 56.8C629.469 42.4 620.541 34.912 608.157 31.744C602.109 32.32 596.061 32.32 591.453 36.064C585.981 40.096 581.085 44.704 575.901 48.736C575.325 49.6 574.173 49.888 573.885 50.176C572.157 47.296 571.005 44.416 568.989 42.4C562.653 35.776 554.013 34.912 546.525 40.384C545.085 41.536 543.069 42.688 541.917 44.416C540.765 45.568 539.901 46.432 538.461 47.584C532.989 51.328 530.109 58.24 527.229 63.712C526.365 64.864 524.925 66.592 525.213 64.288C525.501 63.136 526.077 62.272 526.365 61.12C527.805 55.648 529.245 50.176 530.397 44.704C531.549 40.672 530.397 37.216 527.517 34.048C523.773 33.76 517.725 34.624 514.557 36.928C511.677 38.944 509.373 44.128 507.645 47.584C505.917 51.04 504.765 54.784 503.613 58.24C496.701 77.824 491.517 98.272 484.317 117.856C483.741 119.584 483.165 121.312 482.877 123.328C482.301 128.8 484.893 131.968 490.365 133.408C492.957 133.984 495.261 134.56 497.853 135.136C502.173 133.408 505.053 130.24 506.205 125.344C506.493 123.04 507.069 120.736 507.933 118.432C512.829 104.32 517.725 90.496 524.061 76.96C528.093 68.32 532.989 60.256 539.613 53.344C542.493 50.464 545.949 48.16 549.117 45.856C549.981 44.992 551.421 44.992 552.285 44.704C554.589 46.144 554.301 47.872 554.301 49.6C553.149 58.528 551.997 67.168 549.117 75.232C546.525 82.144 543.645 89.056 540.765 96.256C539.613 99.136 538.461 102.304 537.309 105.472C536.157 108.352 537.021 110.368 539.325 112.096C541.053 113.536 542.781 113.536 545.085 111.808C549.117 108.64 552.573 105.184 554.877 100.576C557.469 95.68 559.773 90.496 562.077 85.6C564.957 78.688 567.549 72.064 570.429 65.152C572.445 60.256 575.325 56.224 579.357 52.768C584.253 48.448 589.725 44.704 595.197 40.672C596.349 39.808 597.789 39.232 599.229 38.944C602.397 38.08 605.277 39.808 606.141 43.264C606.429 44.128 606.429 45.28 606.429 46.144C606.429 50.176 604.989 53.632 603.549 57.088C598.077 68.608 592.605 80.416 587.421 92.224C584.253 98.848 582.813 106.048 582.813 113.536C583.101 125.056 591.165 136.576 602.973 138.016C611.325 138.88 616.509 136.576 623.133 131.68C628.605 127.36 633.789 122.176 638.685 117.568C641.277 114.976 643.581 111.808 645.885 109.216ZM512.253 83.008V83.584L511.965 83.296L512.253 83.008ZM511.101 71.2V70.912C511.101 71.2 511.101 71.2 511.101 71.2ZM505.341 89.056L505.053 87.616C505.341 87.904 505.341 88.48 505.629 89.056C505.341 89.056 505.341 89.056 505.341 89.056ZM509.373 96.544C509.373 97.12 508.797 97.696 508.221 99.136C507.357 95.968 507.933 94.528 510.525 93.088C509.949 94.816 509.661 95.68 509.373 96.544ZM509.085 82.72C509.085 83.872 508.797 84.736 508.509 85.888C508.509 85.888 508.221 86.176 508.221 86.464C508.221 86.176 508.509 85.888 508.509 85.6C507.357 86.176 506.205 87.04 505.341 87.616C506.493 83.584 507.933 79.552 509.373 75.52C509.949 74.08 510.525 72.64 511.101 71.2C512.253 75.52 509.661 78.976 509.085 82.72ZM511.965 91.648C511.965 90.784 511.965 89.632 512.253 88.768C513.693 84.16 515.133 79.264 516.573 74.368C517.149 73.504 517.149 72.352 518.589 72.352C517.437 79.264 515.421 85.6 511.965 91.648ZM518.877 72.064C518.589 71.488 518.589 70.912 518.589 70.336C518.877 70.336 518.877 70.624 519.165 70.624C519.165 70.912 518.877 71.488 518.877 72.064ZM525.213 67.456C525.501 67.456 525.789 67.744 526.077 67.744C525.789 67.744 525.501 67.456 525.213 67.456ZM562.653 57.088C563.517 62.272 560.925 71.2 556.605 77.536C557.757 69.76 561.501 64 562.653 57.088ZM560.349 77.824C560.637 77.248 560.637 76.96 560.925 76.384V77.824H560.349ZM560.925 75.808C561.213 74.944 561.213 73.504 561.501 71.488C562.365 74.08 562.653 75.232 560.925 75.808ZM562.653 69.76L562.941 69.472V69.76H562.653ZM600.957 95.968L601.245 96.256H600.957C600.957 96.256 600.957 96.256 600.957 95.968ZM594.045 109.504L593.757 109.216H594.045V109.504ZM596.061 98.56H595.773H596.061ZM596.061 98.272C595.197 94.24 597.789 91.072 599.229 87.616C599.517 91.648 598.077 95.104 596.061 98.272ZM598.365 104.608V102.88L598.941 104.32C598.653 104.32 598.653 104.608 598.365 104.608ZM600.381 101.44C600.093 102.016 599.229 102.016 598.365 102.304C599.229 100.288 600.093 98.272 600.957 96.256C601.821 97.984 601.533 100 600.381 101.44ZM603.261 72.64L602.973 72.064L603.261 72.352V72.64ZM740.305 93.952C740.017 93.088 739.441 92.512 738.865 92.512C738.001 92.512 737.137 93.088 736.561 93.664C729.361 103.168 728.209 105.472 720.433 115.264C718.993 116.992 716.401 119.296 714.961 121.024C713.233 122.752 712.369 123.904 708.049 126.784C704.017 129.376 700.849 129.376 696.817 131.392C692.497 133.408 689.905 133.984 685.009 133.696C682.993 133.696 681.265 133.408 679.249 132.832C677.809 132.544 676.081 132.256 674.641 131.68C659.089 125.92 657.649 108.352 660.529 94.24C661.105 91.648 661.969 89.056 662.257 86.464C663.409 86.464 664.561 86.752 666.001 86.752C667.729 86.752 669.745 86.464 671.761 86.464C676.369 85.888 681.265 85.312 685.585 84.16C687.889 83.296 689.905 82.432 692.209 81.28C698.545 77.824 702.865 73.216 707.185 67.744C710.353 64 712.945 59.104 712.369 54.208C711.793 49.888 708.625 44.992 704.881 42.688C702.289 40.672 699.409 39.52 696.529 38.368C693.361 37.504 690.481 36.352 687.313 36.928C682.129 37.504 676.657 38.368 671.761 40.96C667.729 43.264 662.833 44.992 659.377 48.16C645.265 61.12 628.849 83.008 631.153 103.168C631.441 107.2 632.017 111.232 633.169 114.976C634.897 120.736 638.065 126.496 642.673 130.24C647.281 134.272 653.329 136.864 659.377 138.592C663.985 139.744 668.881 140.32 673.777 140.608C678.097 140.608 682.705 141.184 687.025 140.608C689.041 140.608 689.905 140.32 691.921 139.456C693.937 138.88 696.241 137.728 698.545 137.152C701.425 136.576 700.273 136 702.865 134.848C710.929 131.104 718.417 126.784 723.889 119.296C723.889 118.72 725.041 117.856 725.329 117.568C729.361 112.672 733.393 106.912 736.561 101.728C737.713 99.712 739.729 98.272 740.305 95.968C740.593 95.392 740.593 94.528 740.305 93.952ZM670.897 65.152C673.489 60.256 676.657 55.648 680.113 51.616C682.705 48.736 685.585 45.568 689.329 44.128C692.497 42.688 695.665 43.552 698.545 45.28C699.409 45.856 700.561 46.72 701.425 47.296C704.305 49.6 706.321 53.344 706.033 57.088C704.881 64 700.849 70.048 695.089 74.08C687.313 79.552 674.641 82.432 665.137 79.84C666.289 74.08 668.305 69.76 670.897 65.152ZM661.969 57.088C662.257 57.088 662.545 57.088 662.833 57.376L661.681 60.256C661.393 60.256 661.105 59.968 660.817 59.968C661.105 58.816 661.681 57.952 661.969 57.088ZM639.217 110.656C638.641 108.928 638.353 107.2 637.777 105.76C638.065 105.472 638.353 105.472 638.353 105.472C638.929 106.336 639.217 106.912 639.505 107.776C639.793 108.64 639.793 109.504 639.793 110.368C639.505 110.656 639.217 110.656 639.217 110.656ZM658.225 62.56L657.937 62.272H658.225V62.56ZM829.613 97.696C829.613 97.12 829.325 96.544 828.749 95.968C828.461 95.68 827.597 95.392 827.309 95.968C827.021 95.968 826.733 96.256 826.445 96.544C824.429 99.712 822.125 102.88 820.109 106.336C813.197 116.992 804.557 125.632 795.053 133.984C794.189 134.56 793.325 135.424 792.173 136C789.581 137.152 786.989 137.44 784.685 135.424C783.533 134.56 782.669 133.696 781.517 132.544C781.517 126.784 782.093 121.312 784.397 115.84C788.141 106.912 792.461 97.984 796.493 89.344C799.373 83.008 801.965 76.96 803.117 70.336C804.269 62.56 801.101 57.376 795.053 53.056C792.749 51.616 790.445 50.464 787.565 51.04C785.261 51.616 782.957 51.616 780.653 51.328C777.485 51.328 775.181 52.192 772.589 53.92C768.845 56.8 764.237 58.24 759.341 59.392C757.037 59.968 754.733 60.544 751.853 59.392C752.141 57.952 752.429 56.8 752.717 55.36C753.869 50.464 755.597 45.568 756.461 40.384C757.613 34.048 757.613 27.424 755.885 21.088C753.581 12.448 745.229 8.70398 737.453 13.024C735.149 14.176 733.421 15.904 731.693 17.632C727.661 21.664 726.509 26.848 725.645 32.32C725.069 35.776 725.933 38.944 727.661 42.112C729.389 44.992 731.405 47.584 732.845 50.464C735.725 55.36 739.181 59.68 744.077 62.56C744.365 62.848 744.365 63.136 744.653 64C742.925 67.456 741.485 71.488 739.181 74.944C736.013 79.84 732.557 84.736 729.389 89.344C726.221 93.952 722.765 98.848 719.309 102.88C718.733 103.456 718.445 104.032 717.869 104.32C717.869 104.608 717.581 104.608 717.581 104.896C717.581 105.184 717.581 105.472 717.869 105.76C718.445 106.336 719.309 106.336 720.173 106.048C720.749 105.76 721.325 105.184 721.901 104.896C722.477 104.32 722.765 104.032 723.053 103.744C723.629 103.456 724.205 102.88 724.493 102.592C731.117 94.24 737.453 85.312 742.925 76.096C743.789 74.368 744.653 72.928 745.517 71.2C746.957 68.896 748.109 66.592 749.261 64C750.989 64.288 752.429 64.864 753.869 65.152C755.309 65.152 756.749 65.44 757.901 65.152C761.357 64 764.525 62.56 767.981 61.12C772.013 59.68 775.469 57.088 780.077 56.512C781.805 59.968 781.229 62.848 780.077 65.728C775.757 76.672 771.437 87.328 767.117 98.272C764.237 105.76 761.357 113.248 759.053 121.024C756.749 128.224 758.189 135.136 763.085 140.896C764.813 143.488 767.117 144.928 770.285 144.64C771.725 144.64 773.453 144.928 774.893 144.928C777.773 145.504 780.077 144.928 782.669 143.776C784.109 143.2 785.549 142.048 786.989 142.048C792.461 141.472 796.493 138.016 800.237 134.56C801.389 133.408 802.541 131.968 803.693 130.816C812.621 123.328 819.245 114.112 825.581 104.32C826.445 103.168 827.021 102.016 827.885 100.864C828.173 100 829.037 99.712 829.325 98.848C829.613 98.56 829.613 97.984 829.613 97.696ZM747.245 58.24C743.789 57.376 741.773 55.36 740.333 53.344C737.453 49.024 734.861 44.704 731.981 40.384C730.253 37.504 729.677 34.336 730.541 30.88C731.117 28.576 731.693 26.272 732.557 23.968C734.285 19.072 738.029 16.48 742.637 15.328C746.957 14.464 751.565 17.92 752.429 22.24C753.581 29.152 753.581 36.064 752.141 42.688C750.989 47.872 750.125 53.344 747.245 58.24ZM771.437 97.984C771.437 97.984 771.437 98.272 771.437 98.56C771.437 98.272 771.437 97.984 771.437 97.984ZM769.133 113.824C769.133 113.824 769.421 113.824 769.421 114.112C769.133 114.112 769.133 113.824 769.133 113.824C769.997 113.248 769.421 110.944 771.437 110.944C770.573 111.808 771.149 113.824 769.133 113.824ZM771.437 110.656C770.861 109.216 770.573 108.064 772.301 107.2C772.013 108.352 771.725 109.504 771.437 110.656ZM773.741 92.8C773.741 92.512 773.741 92.224 773.741 91.936C773.741 92.224 773.741 92.512 774.029 92.8C774.029 93.088 774.029 93.088 774.029 93.376C774.029 93.088 773.741 93.088 773.741 92.8ZM773.741 91.936C774.317 91.36 774.893 91.072 775.469 90.496C775.469 91.648 774.605 91.936 773.741 91.936ZM775.469 90.208C775.757 89.344 775.757 88.192 776.045 87.328C776.045 88.192 776.909 89.632 775.469 90.208ZM776.045 87.328C777.197 85.6 778.061 84.16 778.925 83.008C778.925 84.736 778.925 86.752 776.045 87.328ZM779.213 82.144C778.925 81.568 778.925 80.704 779.789 80.128C779.501 80.992 779.501 81.568 779.213 82.144Z" fill="white"/>
</g>
<defs>
<filter id="filter0_d" x="0.759995" y="0.318558" width="848.853" height="193.876" filterUnits="userSpaceOnUse" color-interpolation-filters="sRGB">
<feFlood flood-opacity="0" result="BackgroundImageFix"/>
<feColorMatrix in="SourceAlpha" type="matrix" values="0 0 0 0 0 0 0 0 0 0 0 0 0 0 0 0 0 0 127 0"/>
<feOffset dy="10"/>
<feGaussianBlur stdDeviation="10"/>
<feColorMatrix type="matrix" values="0 0 0 0 0 0 0 0 0 0 0 0 0 0 0 0 0 0 0.2 0"/>
<feBlend mode="normal" in2="BackgroundImageFix" result="effect1_dropShadow"/>
<feBlend mode="normal" in="SourceGraphic" in2="effect1_dropShadow" result="shape"/>
</filter>
</defs>
</svg>
